<svg xmlns="http://www.w3.org/2000/svg" xmlns:xlink="http://www.w3.org/1999/xlink" width="600px" height="600px">
<path d="M 225.00000000000006 0.0 L 375.0 0.0 L 375.0 300.0 L 524.9999999999999 300.0 L 300.0 525.0 L 75.00000000000006 300.00000000000006 L 225.00000000000006 300.0 L 225.00000000000006 0.0" fill="rgb(0,0,0)" fill-rule="evenodd" stroke="none"/>
<path d="M 37.5 562.5 L 37.5 450.0 L 0.0 450.0 L 0.0 600.0 L 600.0 600.0 L 600.0 450.0 L 562.5 450.0 L 562.5 562.5 L 37.5 562.5" fill="rgb(0,0,0)" fill-rule="evenodd" stroke="none"/>
<line x1="0.0" y1="450.0" x2="0.0" y2="600.0" style="stroke:#000000;"/>
<line x1="0.0" y1="600.0" x2="600.0" y2="600.0" style="stroke:#000000;"/>
<line x1="600.0" y1="600.0" x2="600.0" y2="450.0" style="stroke:#000000;"/>
<line x1="0.0" y1="450.0" x2="37.5" y2="450.0" style="stroke:#000000;"/>
<line x1="37.5" y1="450.0" x2="37.5" y2="562.5" style="stroke:#000000;"/>
<line x1="37.5" y1="562.5" x2="562.5" y2="562.5" style="stroke:#000000;"/>
<line x1="562.5" y1="562.5" x2="562.5" y2="450.0" style="stroke:#000000;"/>
<line x1="562.5" y1="450.0" x2="600.0" y2="450.0" style="stroke:#000000;"/>
<line x1="225.00000000000006" y1="0.0" x2="375.0" y2="0.0" style="stroke:#000000;"/>
<line x1="375.0" y1="300.0" x2="524.9999999999999" y2="300.0" style="stroke:#000000;"/>
<line x1="225.00000000000006" y1="300.0" x2="75.00000000000003" y2="300.00000000000006" style="stroke:#000000;"/>
<line x1="75.00000000000003" y1="300.00000000000006" x2="300.0" y2="525.0" style="stroke:#000000;"/>
<line x1="300.0" y1="525.0" x2="524.9999999999999" y2="300.0" style="stroke:#000000;"/>
<line x1="375.0" y1="300.0" x2="375.0" y2="0.0" style="stroke:#000000;"/>
<line x1="225.00000000000006" y1="0.0" x2="225.00000000000006" y2="300.0" style="stroke:#000000;"/>
</svg>