<?xml version="1.0" encoding="UTF-8" standalone="no"?>
<svg
   xmlns:dc="http://purl.org/dc/elements/1.1/"
   xmlns:cc="http://creativecommons.org/ns#"
   xmlns:rdf="http://www.w3.org/1999/02/22-rdf-syntax-ns#"
   xmlns:svg="http://www.w3.org/2000/svg"
   xmlns="http://www.w3.org/2000/svg"
   xmlns:sodipodi="http://sodipodi.sourceforge.net/DTD/sodipodi-0.dtd"
   xmlns:inkscape="http://www.inkscape.org/namespaces/inkscape"
   inkscape:version="1.0 (4035a4fb49, 2020-05-01)"
   sodipodi:docname="gear4.svg"
   id="svg72"
   version="1.1"
   height="674"
   width="674">
  <metadata
     id="metadata78">
    <rdf:RDF>
      <cc:Work
         rdf:about="">
        <dc:format>image/svg+xml</dc:format>
        <dc:type
           rdf:resource="http://purl.org/dc/dcmitype/StillImage" />
        <dc:title></dc:title>
      </cc:Work>
    </rdf:RDF>
  </metadata>
  <defs
     id="defs76" />
  <sodipodi:namedview
     inkscape:current-layer="svg72"
     inkscape:cy="337"
     inkscape:cx="412.96382"
     inkscape:zoom="0.68823545"
     showgrid="false"
     id="namedview74"
     inkscape:window-height="480"
     inkscape:window-width="640"
     inkscape:pageshadow="2"
     inkscape:pageopacity="0"
     guidetolerance="10"
     gridtolerance="10"
     objecttolerance="10"
     borderopacity="1"
     bordercolor="#666666"
     pagecolor="#ffffff" />
  <path
     id="path2"
     stroke="none"
     fill-rule="evenodd"
     fill="#000000"
     d="M 226.65205,358.85012 116.8041,380.70023 a 224,224 0 0 0 33.44671,80.7475 l -73.48232,88.70841 a 336,336 0 0 0 46.57537,46.57537 l 88.70841,-73.48232 a 224,224 0 0 0 80.7475,33.44671 l 10.76647,114.68617 a 336,336 0 0 0 65.86752,0 L 380.20023,556.6959 a 224,224 0 0 0 80.7475,-33.44671 l 88.70837,73.48232 a 336,336 0 0 0 46.5754,-46.57537 l -73.48231,-88.70841 a 224,224 0 0 0 33.44671,-80.7475 l 114.6862,-10.76647 a 336,336 0 0 0 0,-65.86752 L 556.1959,293.29977 448.5,337 a 112,112 0 0 1 -221.84795,21.85012" />
  <path
     id="path4"
     stroke="none"
     fill-rule="evenodd"
     fill="#000000"
     d="m 448.5,337 107.6959,-43.70023 a 224,224 0 0 0 -33.44671,-80.7475 L 596.2315,123.84386 A 336,336 0 0 0 549.6561,77.268488 L 460.94773,150.75081 A 224,224 0 0 0 380.20023,117.3041 L 369.43376,2.6179318 a 336,336 0 0 0 -65.86752,0 L 292.79977,117.3041 a 224,224 0 0 0 -80.7475,33.44671 L 123.34386,77.268488 A 336,336 0 0 0 76.76849,123.84386 l 73.48232,88.70841 a 224,224 0 0 0 -33.44671,80.7475 L 2.1179303,304.06624 a 336,336 0 0 0 0,65.86752 L 116.8041,380.70023 226.65205,358.85012 A 112,112 0 1 1 448.5,337" />
  <line
     id="line6"
     style="stroke:#000000"
     y2="117.3041"
     x2="380.20026"
     y1="2.6179318"
     x1="369.43378" />
  <line
     id="line8"
     style="stroke:#000000"
     y2="117.3041"
     x2="292.79974"
     y1="2.6179318"
     x1="303.56622" />
  <line
     id="line10"
     style="stroke:#000000"
     y2="77.268486"
     x2="549.65613"
     y1="150.75081"
     x1="460.94775" />
  <line
     id="line12"
     style="stroke:#000000"
     y2="212.55226"
     x2="522.74921"
     y1="123.84386"
     x1="596.23157" />
  <line
     id="line14"
     style="stroke:#000000"
     y2="304.06625"
     x2="670.88208"
     y1="293.29977"
     x1="556.19592" />
  <line
     id="line16"
     style="stroke:#000000"
     y2="380.70023"
     x2="556.19592"
     y1="369.93375"
     x1="670.88208" />
  <line
     id="line18"
     style="stroke:#000000"
     y2="550.15613"
     x2="596.23157"
     y1="461.44772"
     x1="522.74921" />
  <line
     id="line20"
     style="stroke:#000000"
     y2="523.24921"
     x2="460.94775"
     y1="596.73151"
     x1="549.65613" />
  <line
     id="line22"
     style="stroke:#000000"
     y2="671.38208"
     x2="369.43378"
     y1="556.69592"
     x1="380.20026" />
  <line
     id="line24"
     style="stroke:#000000"
     y2="556.69592"
     x2="292.79974"
     y1="671.38208"
     x1="303.56622" />
  <line
     id="line26"
     style="stroke:#000000"
     y2="596.73151"
     x2="123.34387"
     y1="523.24921"
     x1="212.05225" />
  <line
     id="line28"
     style="stroke:#000000"
     y2="461.44772"
     x2="150.25079"
     y1="550.15613"
     x1="76.768494" />
  <line
     id="line30"
     style="stroke:#000000"
     y2="369.93375"
     x2="2.1179202"
     y1="380.70023"
     x1="116.80408" />
  <line
     id="line32"
     style="stroke:#000000"
     y2="293.29977"
     x2="116.80408"
     y1="304.06625"
     x1="2.1179202" />
  <line
     id="line34"
     style="stroke:#000000"
     y2="123.84386"
     x2="76.768494"
     y1="212.55226"
     x1="150.25079" />
  <line
     id="line36"
     style="stroke:#000000"
     y2="150.75081"
     x2="212.05225"
     y1="77.268486"
     x1="123.34387" />
  <path
     id="path38"
     style="fill:none;stroke:#000000"
     d="m 380.20023,117.3041 a 224,224 0 0 1 80.7475,33.44671" />
  <path
     id="path40"
     style="fill:none;stroke:#000000"
     d="m 522.74919,212.55227 a 224,224 0 0 1 33.44671,80.7475" />
  <path
     id="path42"
     style="fill:none;stroke:#000000"
     d="m 556.1959,380.70023 a 224,224 0 0 1 -33.44671,80.7475" />
  <path
     id="path44"
     style="fill:none;stroke:#000000"
     d="m 460.94773,523.24919 a 224,224 0 0 1 -80.7475,33.44671" />
  <path
     id="path46"
     style="fill:none;stroke:#000000"
     d="m 292.79977,556.6959 a 224,224 0 0 1 -80.7475,-33.44671" />
  <path
     id="path48"
     style="fill:none;stroke:#000000"
     d="M 150.25081,461.44773 A 224,224 0 0 1 116.8041,380.70023" />
  <path
     id="path50"
     style="fill:none;stroke:#000000"
     d="m 116.8041,293.29977 a 224,224 0 0 1 33.44671,-80.7475" />
  <path
     id="path52"
     style="fill:none;stroke:#000000"
     d="m 212.05227,150.75081 a 224,224 0 0 1 80.7475,-33.44671" />
  <path
     id="path54"
     style="fill:none;stroke:#000000"
     d="m 549.6561,77.268488 a 336,336 0 0 1 46.5754,46.575372" />
  <path
     id="path56"
     style="fill:none;stroke:#000000"
     d="m 670.8821,304.06624 a 336,336 0 0 1 0,65.86752" />
  <path
     id="path58"
     style="fill:none;stroke:#000000"
     d="m 596.2315,550.15614 a 336,336 0 0 1 -46.5754,46.57537" />
  <path
     id="path60"
     style="fill:none;stroke:#000000"
     d="m 369.43376,671.38207 a 336,336 0 0 1 -65.86752,0" />
  <path
     id="path62"
     style="fill:none;stroke:#000000"
     d="M 123.34386,596.73151 A 336,336 0 0 1 76.76849,550.15614" />
  <path
     id="path64"
     style="fill:none;stroke:#000000"
     d="m 2.1179303,369.93376 a 336,336 0 0 1 0,-65.86752" />
  <path
     id="path66"
     style="fill:none;stroke:#000000"
     d="M 76.76849,123.84386 A 336,336 0 0 1 123.34386,77.268488" />
  <path
     id="path68"
     style="fill:none;stroke:#000000"
     d="m 303.56624,2.6179318 a 336,336 0 0 1 65.86752,0" />
  <circle
     id="circle70"
     style="fill:none;stroke:#000000"
     r="112"
     cy="337"
     cx="336.5" />
</svg>
