<svg xmlns="http://www.w3.org/2000/svg" xmlns:xlink="http://www.w3.org/1999/xlink" width="600px" height="600px">
<path d="M 262.5 112.5 L 262.5 262.5 L 112.5 262.5 L 112.5 187.50000000000003 L 0.0 300.00000000000006 L 112.5 412.5 L 112.5 337.5 L 262.5 337.5 L 262.5 487.5 L 187.5 487.5 L 300.0 600.0 L 412.5 487.5 L 337.5 487.5 L 337.5 337.5 L 487.5 337.5 L 487.5 412.5 L 600.0 300.0 L 487.5 187.5 L 487.5 262.5 L 337.5 262.5 L 337.5 112.5 L 412.5 112.5 L 300.0 0.0 L 187.5 112.5 L 262.5 112.5" fill="rgb(0,0,0)" fill-rule="evenodd" stroke="none"/>
<line x1="112.5" y1="337.5" x2="262.5" y2="337.5" style="stroke:#000000;"/>
<line x1="262.5" y1="337.5" x2="262.5" y2="487.5" style="stroke:#000000;"/>
<line x1="337.5" y1="487.5" x2="337.5" y2="337.5" style="stroke:#000000;"/>
<line x1="337.5" y1="337.5" x2="487.5" y2="337.5" style="stroke:#000000;"/>
<line x1="487.5" y1="262.5" x2="337.5" y2="262.5" style="stroke:#000000;"/>
<line x1="337.5" y1="262.5" x2="337.5" y2="112.5" style="stroke:#000000;"/>
<line x1="262.5" y1="112.5" x2="262.5" y2="262.5" style="stroke:#000000;"/>
<line x1="262.5" y1="262.5" x2="112.5" y2="262.5" style="stroke:#000000;"/>
<line x1="300.0" y1="0.0" x2="412.5" y2="112.5" style="stroke:#000000;"/>
<line x1="600.0" y1="300.0" x2="487.5" y2="187.5" style="stroke:#000000;"/>
<line x1="487.5" y1="187.5" x2="487.5" y2="262.5" style="stroke:#000000;"/>
<line x1="412.5" y1="112.5" x2="337.5" y2="112.5" style="stroke:#000000;"/>
<line x1="300.0" y1="600.0" x2="412.5" y2="487.5" style="stroke:#000000;"/>
<line x1="600.0" y1="300.0" x2="487.5" y2="412.5" style="stroke:#000000;"/>
<line x1="412.5" y1="487.5" x2="337.5" y2="487.5" style="stroke:#000000;"/>
<line x1="487.5" y1="412.5" x2="487.5" y2="337.5" style="stroke:#000000;"/>
<line x1="0.0" y1="300.00000000000006" x2="112.5" y2="412.5" style="stroke:#000000;"/>
<line x1="300.0" y1="600.0" x2="187.5" y2="487.5" style="stroke:#000000;"/>
<line x1="112.5" y1="412.5" x2="112.5" y2="337.5" style="stroke:#000000;"/>
<line x1="187.5" y1="487.5" x2="262.5" y2="487.5" style="stroke:#000000;"/>
<line x1="0.0" y1="300.00000000000006" x2="112.5" y2="187.50000000000003" style="stroke:#000000;"/>
<line x1="300.0" y1="0.0" x2="187.5" y2="112.5" style="stroke:#000000;"/>
<line x1="187.5" y1="112.5" x2="262.5" y2="112.5" style="stroke:#000000;"/>
<line x1="112.5" y1="187.50000000000003" x2="112.5" y2="262.5" style="stroke:#000000;"/>
<line x1="0.0" y1="0.0" x2="0.0" y2="600.0" style="stroke:#000000;"/>
<line x1="600.0" y1="0.0" x2="600.0" y2="600.0" style="stroke:#000000;"/>
<line x1="600.0" y1="600.0" x2="0.0" y2="600.0" style="stroke:#000000;"/>
<line x1="600.0" y1="0.0" x2="0.0" y2="0.0" style="stroke:#000000;"/>
</svg>