<svg xmlns="http://www.w3.org/2000/svg" xmlns:xlink="http://www.w3.org/1999/xlink" width="600px" height="600px">
<path d="M 514.7186257614297 130.95244168786323 L 600.0 45.671067449292934 L 600.0 301.5151901650039 L 344.1558772842892 301.5151901650039 L 429.43725152285936 216.23381592643346 A 241.2121521320032 241.2121521320032 0 0 0 88.31175456857852 557.359312880715 A 301.51519016500407 301.51519016500407 0 1 1 514.7186257614298 130.95244168786323" fill="rgb(0,0,0)" fill-rule="evenodd" stroke="none"/>
<line x1="344.1558772842892" y1="301.5151901650039" x2="429.43725152285947" y2="216.23381592643358" style="stroke:#000000;"/>
<line x1="344.1558772842892" y1="301.5151901650039" x2="600.0" y2="301.5151901650039" style="stroke:#000000;"/>
<line x1="600.0" y1="301.5151901650039" x2="600.0" y2="45.671067449292934" style="stroke:#000000;"/>
<line x1="600.0" y1="45.671067449292934" x2="514.7186257614297" y2="130.95244168786323" style="stroke:#000000;"/>
<path d="M88.31175456857852 557.359312880715 A241.2121521320032 241.2121521320032 0 0 1 429.43725152285936 216.23381592643346" style="stroke:#000000; fill:none"/>
<path d="M88.3117545685785 557.3593128807152 A301.51519016500407 301.51519016500407 0 1 1 514.7186257614296 130.95244168786306" style="stroke:#000000; fill:none"/>
</svg>